<?xml version="1.0" encoding="UTF-8" standalone="no"?>
<svg
   viewBox="0 0 675 451"
   version="1.1"
   id="svg168"
   sodipodi:docname="2432e1eab552d4025fd64fce5ec65489.svg"
   width="675"
   height="451"
   xmlns:inkscape="http://www.inkscape.org/namespaces/inkscape"
   xmlns:sodipodi="http://sodipodi.sourceforge.net/DTD/sodipodi-0.dtd"
   xmlns:xlink="http://www.w3.org/1999/xlink"
   xmlns="http://www.w3.org/2000/svg"
   xmlns:svg="http://www.w3.org/2000/svg">
  <sodipodi:namedview
     id="namedview170"
     pagecolor="#ffffff"
     bordercolor="#666666"
     borderopacity="1.0"
     inkscape:pageshadow="2"
     inkscape:pageopacity="0.0"
     inkscape:pagecheckerboard="0" />
  <title
     id="title2">DOM - Elementenbaum einer Webseite</title>
  <defs
     id="defs30">
    <style
       type="text/css"
       id="style4">
	  text {text-anchor: middle; font-size: 16px;}
	  path {stroke-width: 3; stroke: black;}
	  rect {stroke-width: 1; stroke: black;}
	</style>
    <symbol
       id="knoten">
      <rect
         x="1"
         y="1"
         rx="5"
         ry="5"
         width="100"
         height="30"
         id="rect6" />
    </symbol>
    <symbol
       id="elementknoten">
      <rect
         x="26"
         y="1"
         rx="5"
         ry="5"
         width="50"
         height="30"
         id="rect9" />
    </symbol>
    <symbol
       id="line">
      <path
         d="M 0,0 65,32"
         id="path12" />
    </symbol>
    <symbol
       id="link">
      <rect
         x="1"
         y="1"
         rx="5"
         ry="5"
         width="50"
         height="30"
         fill="#dfac20"
         id="rect15" />
      <text
         transform="translate(25,20)"
         id="text17">a</text>
      <path
         d="M 51,15 H 76"
         id="path19" />
      <rect
         x="75"
         y="1"
         rx="5"
         ry="5"
         width="50"
         height="30"
         fill="#337599"
         id="rect21" />
      <text
         transform="translate(100,20)"
         fill="#ffffff"
         id="text23">href</text>
      <path
         d="M 25,31 V 61"
         id="path25" />
      <rect
         x="1"
         y="61"
         rx="5"
         ry="5"
         width="100"
         height="30"
         fill="#c82f04"
         id="rect27" />
    </symbol>
  </defs>
  <use
     xlink:href="#knoten"
     transform="translate(194.5,-0.5)"
     fill="#fffbf0"
     id="use32"
     x="0"
     y="0"
     width="100%"
     height="100%" />
  <text
     id="text34"
     x="244.5"
     y="19.5">document</text>
  <path
     d="m 244.5,30.5 v 29"
     id="path36" />
  <use
     xlink:href="#line"
     x="0"
     y="0"
     transform="matrix(2.1,0,0,1,244.5,89.5)"
     id="use38"
     width="100%"
     height="100%" />
  <use
     xlink:href="#line"
     x="0"
     y="0"
     transform="matrix(-2.1,0,0,1,244.5,89.5)"
     id="use40"
     width="100%"
     height="100%" />
  <use
     xlink:href="#elementknoten"
     transform="translate(194.5,59.5)"
     fill="#dfac20"
     id="use42"
     x="0"
     y="0"
     width="100%"
     height="100%" />
  <text
     id="text44"
     x="244.5"
     y="79.5">html</text>
  <path
     d="m 269.5,74.5 h 30"
     id="path46" />
  <use
     xlink:href="#elementknoten"
     transform="translate(274.5,59.5)"
     fill="#337599"
     id="use48"
     x="0"
     y="0"
     width="100%"
     height="100%" />
  <text
     fill="#ffffff"
     id="text50"
     x="324.5"
     y="79.5">lang</text>
  <use
     xlink:href="#line"
     x="0"
     y="0"
     transform="matrix(-1.1,0,0,1,94.5,149.5)"
     id="use52"
     width="100%"
     height="100%" />
  <use
     xlink:href="#elementknoten"
     transform="translate(44.5,119.5)"
     fill="#dfac20"
     id="use54"
     x="0"
     y="0"
     width="100%"
     height="100%" />
  <text
     id="text56"
     x="94.5"
     y="139.5">head</text>
  <use
     xlink:href="#elementknoten"
     transform="translate(-25.5,179.5)"
     fill="#dfac20"
     id="use58"
     x="0"
     y="0"
     width="100%"
     height="100%" />
  <text
     id="text60"
     x="24.5"
     y="199.5">title</text>
  <path
     d="m 19.5,209.5 v 30"
     id="path62" />
  <use
     xlink:href="#knoten"
     transform="translate(-0.5,229.5)"
     fill="#c82f04"
     id="use64"
     x="0"
     y="0"
     width="100%"
     height="100%" />
  <text
     fill="#ffffff"
     id="text66"
     x="49.5"
     y="249.5">Seitenname</text>
  <use
     xlink:href="#line"
     x="0"
     y="0"
     transform="matrix(1.1,0,0,1,94.5,149.5)"
     id="use68"
     width="100%"
     height="100%" />
  <use
     xlink:href="#elementknoten"
     transform="translate(109.5,179.5)"
     fill="#dfac20"
     id="use70"
     x="0"
     y="0"
     width="100%"
     height="100%" />
  <text
     id="text72"
     x="159.5"
     y="199.5">meta</text>
  <use
     xlink:href="#elementknoten"
     transform="translate(344.5,119.5)"
     fill="#dfac20"
     id="use74"
     x="0"
     y="0"
     width="100%"
     height="100%" />
  <text
     id="text76"
     x="394.5"
     y="139.5">body</text>
  <use
     xlink:href="#line"
     x="0"
     y="0"
     transform="matrix(2.1,0,0,1,394.5,149.5)"
     id="use78"
     width="100%"
     height="100%" />
  <use
     xlink:href="#line"
     x="0"
     y="0"
     transform="matrix(-1.5,0,0,1,394.5,149.5)"
     id="use80"
     width="100%"
     height="100%" />
  <use
     xlink:href="#elementknoten"
     transform="translate(244.5,179.5)"
     fill="#dfac20"
     id="use82"
     x="0"
     y="0"
     width="100%"
     height="100%" />
  <text
     id="text84"
     x="294.5"
     y="199.5">nav</text>
  <use
     xlink:href="#line"
     x="0"
     y="0"
     transform="matrix(-1.5,0,0,1,294.5,209.5)"
     id="use86"
     width="100%"
     height="100%" />
  <use
     xlink:href="#elementknoten"
     transform="translate(124.5,239.5)"
     fill="#dfac20"
     id="use88"
     x="0"
     y="0"
     width="100%"
     height="100%" />
  <text
     id="text90"
     x="174.5"
     y="259.5">ul</text>
  <use
     xlink:href="#line"
     x="0"
     y="0"
     transform="matrix(-1.2,0,0,1,174.5,269.5)"
     id="use92"
     width="100%"
     height="100%" />
  <use
     xlink:href="#elementknoten"
     transform="translate(49.5,299.5)"
     fill="#dfac20"
     id="use94"
     x="0"
     y="0"
     width="100%"
     height="100%" />
  <text
     id="text96"
     x="99.5"
     y="319.5">li</text>
  <path
     d="m 99.5,329.5 v 30"
     id="path98" />
  <use
     xlink:href="#link"
     transform="translate(74.5,359.5)"
     id="use100"
     x="0"
     y="0"
     width="100%"
     height="100%" />
  <text
     fill="#ffffff"
     id="text102"
     x="124.5"
     y="439.5">Linktext 1</text>
  <use
     xlink:href="#line"
     x="0"
     y="0"
     transform="matrix(1.2,0,0,1,174.5,269.5)"
     id="use104"
     width="100%"
     height="100%" />
  <use
     xlink:href="#elementknoten"
     transform="translate(199.5,299.5)"
     fill="#dfac20"
     id="use106"
     x="0"
     y="0"
     width="100%"
     height="100%" />
  <text
     id="text108"
     x="249.5"
     y="319.5">li</text>
  <path
     d="m 249.5,329.5 v 30"
     id="path110" />
  <use
     xlink:href="#link"
     transform="translate(224.5,359.5)"
     id="use112"
     x="0"
     y="0"
     width="100%"
     height="100%" />
  <text
     fill="#ffffff"
     id="text114"
     x="274.5"
     y="439.5">Linktext 2</text>
  <use
     xlink:href="#elementknoten"
     transform="translate(494.5,179.5)"
     fill="#dfac20"
     id="use116"
     x="0"
     y="0"
     width="100%"
     height="100%" />
  <text
     id="text118"
     x="544.5"
     y="199.5">main</text>
  <use
     xlink:href="#line"
     x="0"
     y="0"
     transform="matrix(-1,0,0,1,544.5,209.5)"
     id="use120"
     width="100%"
     height="100%" />
  <use
     xlink:href="#elementknoten"
     transform="translate(404.5,239.5)"
     fill="#dfac20"
     id="use122"
     x="0"
     y="0"
     width="100%"
     height="100%" />
  <text
     id="text124"
     x="454.5"
     y="259.5">h1</text>
  <path
     d="m 444.5,269.5 -30,30"
     id="path126" />
  <use
     xlink:href="#knoten"
     transform="translate(344.5,299.5)"
     fill="#c82f04"
     id="use128"
     x="0"
     y="0"
     width="100%"
     height="100%" />
  <text
     fill="#ffffff"
     id="text130"
     x="394.5"
     y="319.5">Überschrift</text>
  <use
     xlink:href="#line"
     x="0"
     y="0"
     transform="translate(544.5,209.5)"
     id="use132"
     width="100%"
     height="100%" />
  <use
     xlink:href="#knoten"
     transform="translate(569.5,239.5)"
     fill="#93b946"
     id="use134"
     x="0"
     y="0"
     width="100%"
     height="100%" />
  <text
     id="text136"
     x="619.5"
     y="259.5">Kommentar</text>
  <path
     d="m 544.5,209.5 v 90"
     id="path138" />
  <use
     xlink:href="#elementknoten"
     transform="translate(494.5,299.5)"
     fill="#dfac20"
     id="use140"
     x="0"
     y="0"
     width="100%"
     height="100%" />
  <text
     id="text142"
     x="544.5"
     y="319.5">p</text>
  <use
     xlink:href="#line"
     x="0"
     y="0"
     transform="matrix(-1.5,0,0,1,544.5,329.5)"
     id="use144"
     width="100%"
     height="100%" />
  <use
     xlink:href="#knoten"
     transform="translate(394.5,359.5)"
     fill="#c82f04"
     id="use146"
     x="0"
     y="0"
     width="100%"
     height="100%" />
  <text
     fill="#ffffff"
     id="text148"
     x="444.5"
     y="379.5">Textinhalt</text>
  <use
     xlink:href="#line"
     x="0"
     y="0"
     transform="matrix(0.7,0,0,1,544.5,329.5)"
     id="use150"
     width="100%"
     height="100%" />
  <use
     xlink:href="#elementknoten"
     transform="translate(534.5,359.5)"
     fill="#dfac20"
     id="use152"
     x="0"
     y="0"
     width="100%"
     height="100%" />
  <text
     id="text154"
     x="584.5"
     y="379.5">img</text>
  <path
     d="m 610.5,374.5 h 25"
     id="path156" />
  <rect
     x="624.5"
     y="360.5"
     rx="5"
     ry="5"
     width="50"
     height="30"
     stroke-width="1"
     stroke="#666666"
     fill="#337599"
     id="rect158" />
  <text
     fill="#ffffff"
     id="text160"
     x="649.5"
     y="379.5">src</text>
  <path
     d="m 610.5,374.5 30,50"
     id="path162" />
  <rect
     x="624.5"
     y="399.5"
     rx="5"
     ry="5"
     width="50"
     height="30"
     stroke-width="1"
     stroke="#666666"
     fill="#337599"
     id="rect164" />
  <text
     fill="#ffffff"
     id="text166"
     x="649.5"
     y="419.5">alt</text>
</svg>
